<svg width="12" height="12" viewBox="0 0 12 12" fill="none" xmlns="http://www.w3.org/2000/svg">
<path d="M11.1233 4.58907C11.0846 4.46613 11.0099 4.35758 10.909 4.27739C10.8081 4.19719 10.6855 4.14902 10.557 4.13907L7.76983 3.89813C7.75298 3.89648 7.73688 3.89029 7.72327 3.88022C7.70965 3.87015 7.69901 3.85658 7.69249 3.84095L6.60358 1.24595C6.55315 1.12757 6.46903 1.02662 6.36169 0.955672C6.25434 0.884721 6.12851 0.846893 5.99983 0.846893C5.87116 0.846893 5.74532 0.884721 5.63798 0.955672C5.53063 1.02662 5.44651 1.12757 5.39608 1.24595L4.30717 3.84095C4.30065 3.85658 4.29001 3.87015 4.2764 3.88022C4.26278 3.89029 4.24669 3.89648 4.22983 3.89813L1.44264 4.13907C1.31413 4.14902 1.19154 4.19719 1.09063 4.27739C0.989719 4.35758 0.915108 4.46613 0.876394 4.58907C0.835392 4.71219 0.831811 4.8447 0.866102 4.96985C0.900394 5.095 0.971019 5.20718 1.06905 5.2922L3.18358 7.13673C3.19653 7.14823 3.20615 7.163 3.21142 7.17949C3.2167 7.19599 3.21745 7.2136 3.21358 7.23048L2.57796 9.97313C2.54833 10.0994 2.55678 10.2316 2.60225 10.3531C2.64772 10.4746 2.72816 10.5799 2.83342 10.6556C2.93705 10.7321 3.06122 10.7757 3.1899 10.7809C3.31858 10.7861 3.44586 10.7526 3.5553 10.6847L5.95108 9.23157C5.96516 9.22286 5.9814 9.21824 5.99796 9.21824C6.01452 9.21824 6.03075 9.22286 6.04483 9.23157L8.44061 10.6847C8.55119 10.7524 8.67934 10.7858 8.8089 10.7808C8.93846 10.7757 9.06361 10.7324 9.16857 10.6562C9.27352 10.5801 9.35358 10.4746 9.39863 10.353C9.44368 10.2315 9.45171 10.0993 9.42171 9.97313L8.78796 7.22954C8.78409 7.21266 8.78484 7.19505 8.79011 7.17856C8.79539 7.16206 8.80501 7.14729 8.81796 7.13579L10.9325 5.29126C11.03 5.20609 11.1002 5.09398 11.1341 4.96903C11.1681 4.84408 11.1643 4.71188 11.1233 4.58907ZM10.5608 4.86657L8.44624 6.7111C8.35614 6.7895 8.28914 6.891 8.25247 7.00466C8.21579 7.11832 8.21083 7.23983 8.23811 7.3561L8.87186 10.0997C8.87655 10.1181 8.87551 10.1376 8.8689 10.1554C8.86229 10.1732 8.8504 10.1886 8.83483 10.1995C8.82074 10.2108 8.80341 10.2173 8.78537 10.2181C8.76732 10.2188 8.74951 10.2138 8.73452 10.2038L6.33874 8.75063C6.23659 8.68855 6.11936 8.65572 5.99983 8.65572C5.8803 8.65572 5.76307 8.68855 5.66092 8.75063L3.26514 10.2038C3.25015 10.2138 3.23234 10.2188 3.2143 10.2181C3.19626 10.2173 3.17893 10.2108 3.16483 10.1995C3.14926 10.1886 3.13738 10.1732 3.13076 10.1554C3.12415 10.1376 3.12312 10.1181 3.1278 10.0997L3.76155 7.3561C3.78883 7.23983 3.78387 7.11832 3.7472 7.00466C3.71052 6.891 3.64352 6.7895 3.55342 6.7111L1.43889 4.86657C1.42443 4.85427 1.41405 4.83787 1.40911 4.81954C1.40417 4.80121 1.40491 4.78181 1.41124 4.76392C1.41597 4.74609 1.42624 4.73023 1.44055 4.7186C1.45487 4.70698 1.47251 4.7002 1.49093 4.69923L4.27858 4.45829C4.39792 4.44812 4.51221 4.40549 4.60905 4.33501C4.70589 4.26452 4.78159 4.16888 4.82796 4.05845L5.91686 1.46345C5.92443 1.44734 5.93643 1.43372 5.95146 1.42418C5.96648 1.41464 5.98391 1.40958 6.00171 1.40958C6.0195 1.40958 6.03693 1.41464 6.05196 1.42418C6.06698 1.43372 6.07898 1.44734 6.08655 1.46345L7.17171 4.05845C7.21792 4.16862 7.29334 4.26408 7.38982 4.33455C7.48631 4.40501 7.60019 4.44779 7.71921 4.45829L10.5069 4.69923C10.5253 4.7002 10.5429 4.70698 10.5572 4.7186C10.5716 4.73023 10.5818 4.74609 10.5865 4.76392C10.5931 4.78163 10.5941 4.80091 10.5895 4.81923C10.5849 4.83755 10.5749 4.85405 10.5608 4.86657Z" fill="#A5A5A5"/>
</svg>
