<svg width="24" height="24" viewBox="0 0 24 24" fill="none" xmlns="http://www.w3.org/2000/svg">
<path d="M13.5253 4.30593C13.5508 4.21075 13.5947 4.12151 13.6547 4.04333C13.7147 3.96514 13.7894 3.89954 13.8748 3.85026C13.9601 3.80098 14.0543 3.769 14.152 3.75614C14.2496 3.74328 14.3489 3.74979 14.4441 3.77531C15.8344 4.13807 17.103 4.86491 18.119 5.88096C19.1351 6.89702 19.8619 8.16556 20.2247 9.55593C20.2502 9.6511 20.2567 9.75036 20.2439 9.84805C20.231 9.94573 20.199 10.0399 20.1497 10.1252C20.1005 10.2106 20.0349 10.2853 19.9567 10.3453C19.8785 10.4053 19.7893 10.4492 19.6941 10.4747C19.6307 10.4913 19.5655 10.4998 19.5 10.5C19.3349 10.5 19.1743 10.4456 19.0433 10.3451C18.9122 10.2445 18.8181 10.1036 18.7753 9.94406C18.4796 8.80887 17.8865 7.7731 17.0571 6.94353C16.2277 6.11397 15.192 5.52062 14.0569 5.22468C13.9616 5.19932 13.8723 5.15543 13.794 5.09552C13.7157 5.0356 13.65 4.96084 13.6006 4.87551C13.5513 4.79018 13.5192 4.69595 13.5063 4.59822C13.4933 4.50048 13.4998 4.40116 13.5253 4.30593ZM13.3069 8.22468C14.5997 8.56968 15.4303 9.40124 15.7753 10.6941C15.8181 10.8536 15.9122 10.9945 16.0433 11.0951C16.1743 11.1956 16.3349 11.25 16.5 11.25C16.5655 11.2498 16.6307 11.2413 16.6941 11.2247C16.7893 11.1992 16.8785 11.1553 16.9567 11.0953C17.0349 11.0353 17.1005 10.9606 17.1497 10.8752C17.199 10.7899 17.231 10.6957 17.2439 10.598C17.2567 10.5004 17.2502 10.4011 17.2247 10.3059C16.7447 8.50968 15.4903 7.25531 13.6941 6.77531C13.5019 6.72396 13.2971 6.75107 13.1249 6.85067C12.9527 6.95027 12.8271 7.1142 12.7758 7.3064C12.7244 7.4986 12.7516 7.70332 12.8512 7.87553C12.9508 8.04774 13.1147 8.17334 13.3069 8.22468ZM20.0972 15.6056L15.6806 13.6266L15.6684 13.6209C15.4392 13.5229 15.189 13.4835 14.9407 13.5064C14.6924 13.5293 14.4537 13.6138 14.2463 13.7522C14.2218 13.7683 14.1984 13.7858 14.1759 13.8047L11.8941 15.75C10.4484 15.0478 8.95595 13.5666 8.25376 12.1397L10.2019 9.82312C10.2206 9.79968 10.2384 9.77624 10.2553 9.75093C10.3907 9.54403 10.4729 9.30686 10.4945 9.06053C10.5161 8.8142 10.4764 8.56636 10.3791 8.33906V8.32781L8.39438 3.90374C8.2657 3.6068 8.04444 3.35945 7.76362 3.19859C7.4828 3.03774 7.1575 2.97202 6.83626 3.01124C5.56592 3.17841 4.39986 3.80228 3.55588 4.76633C2.7119 5.73039 2.24771 6.9687 2.25001 8.24999C2.25001 15.6937 8.30626 21.75 15.75 21.75C17.0313 21.7523 18.2696 21.2881 19.2337 20.4441C20.1977 19.6001 20.8216 18.4341 20.9888 17.1637C21.0281 16.8426 20.9625 16.5174 20.8018 16.2366C20.6411 15.9558 20.394 15.7345 20.0972 15.6056Z" fill="#343330"/>
</svg>
