<svg width="98" height="21" viewBox="0 0 98 21" fill="none" xmlns="http://www.w3.org/2000/svg">
<g filter="url(#filter0_i_0_5269)">
<rect width="20.75" height="20.75" rx="3.25" fill="white"/>
<rect width="20.75" height="20.75" rx="3.25" fill="url(#paint0_linear_0_5269)"/>
<rect x="0.125" y="0.125" width="20.5" height="20.5" rx="3.125" stroke="url(#paint1_linear_0_5269)" stroke-width="0.25"/>
<path d="M9.48178 17.3425C8.63222 17.5223 7.55819 16.6932 8.28226 16.2138C8.96069 15.7646 10.3973 15.8298 10.9796 15.2727C13.7088 12.7257 6.69582 15.1028 12.2376 11.0995C12.6191 10.824 13.0107 10.5499 13.315 10.191C15.2777 7.87598 8.92041 11.336 11.9054 7.88626C16.9335 -0.0552185 8.91503 6.39106 7.93182 11.2694C6.21377 26.4768 3.285 7.9292 11.615 3.59115C13.0989 2.89107 14.915 2.49108 14.7679 4.92612C14.6146 6.839 13.415 7.09108 14.5949 8.67595C15.415 10.0911 13.3869 11.7731 12.5739 12.9412C14.3568 15.1647 11.8165 16.8484 9.48178 17.3425Z" fill="#ECE2FA"/>
</g>
<path d="M35.0746 16.4524H33.3328L31.317 10.9137L29.3794 16.4524H27.618L22.9014 3.41797H24.7998L28.4792 13.6145L30.358 8.27162L28.5966 3.41797H30.495L32.2172 8.19333L34.1939 13.6145L37.7559 3.41797H39.6543L35.0746 16.4524Z" fill="url(#paint2_linear_0_5269)"/>
<path d="M35.0746 16.4524H33.3328L31.317 10.9137L29.3794 16.4524H27.618L22.9014 3.41797H24.7998L28.4792 13.6145L30.358 8.27162L28.5966 3.41797H30.495L32.2172 8.19333L34.1939 13.6145L37.7559 3.41797H39.6543L35.0746 16.4524Z" fill="url(#paint3_linear_0_5269)"/>
<path d="M40.9036 5.25766C40.6557 5.25766 40.4404 5.17285 40.2577 5.00323C40.0881 4.82057 40.0033 4.60529 40.0033 4.35738C40.0033 4.10948 40.0881 3.90072 40.2577 3.73111C40.4404 3.54844 40.6557 3.45711 40.9036 3.45711C41.1515 3.45711 41.3602 3.54844 41.5299 3.73111C41.7125 3.90072 41.8039 4.10948 41.8039 4.35738C41.8039 4.60529 41.7125 4.82057 41.5299 5.00323C41.3602 5.17285 41.1515 5.25766 40.9036 5.25766ZM40.1012 16.4524V6.66678H41.7451V16.4524H40.1012Z" fill="url(#paint4_linear_0_5269)"/>
<path d="M40.9036 5.25766C40.6557 5.25766 40.4404 5.17285 40.2577 5.00323C40.0881 4.82057 40.0033 4.60529 40.0033 4.35738C40.0033 4.10948 40.0881 3.90072 40.2577 3.73111C40.4404 3.54844 40.6557 3.45711 40.9036 3.45711C41.1515 3.45711 41.3602 3.54844 41.5299 3.73111C41.7125 3.90072 41.8039 4.10948 41.8039 4.35738C41.8039 4.60529 41.7125 4.82057 41.5299 5.00323C41.3602 5.17285 41.1515 5.25766 40.9036 5.25766ZM40.1012 16.4524V6.66678H41.7451V16.4524H40.1012Z" fill="url(#paint5_linear_0_5269)"/>
<path d="M49.4805 16.4524V10.581C49.4805 9.99388 49.2652 9.48503 48.8346 9.05446C48.4171 8.63695 47.9082 8.42819 47.3081 8.42819C46.7209 8.42819 46.2121 8.64347 45.7815 9.07404C45.5858 9.26975 45.4292 9.5046 45.3118 9.7786C45.1944 10.0395 45.1357 10.307 45.1357 10.581V16.4524H43.433V6.90164H45.1357V7.70405C45.3836 7.40396 45.7097 7.15606 46.1142 6.96035C46.5187 6.76464 46.9166 6.66678 47.3081 6.66678C47.83 6.66678 48.3258 6.77116 48.7955 6.97992C49.2782 7.17563 49.7023 7.45615 50.0676 7.82148C50.4199 8.17376 50.6939 8.59128 50.8896 9.07404C51.0983 9.54374 51.2027 10.0461 51.2027 10.581V16.4524H49.4805Z" fill="url(#paint6_linear_0_5269)"/>
<path d="M49.4805 16.4524V10.581C49.4805 9.99388 49.2652 9.48503 48.8346 9.05446C48.4171 8.63695 47.9082 8.42819 47.3081 8.42819C46.7209 8.42819 46.2121 8.64347 45.7815 9.07404C45.5858 9.26975 45.4292 9.5046 45.3118 9.7786C45.1944 10.0395 45.1357 10.307 45.1357 10.581V16.4524H43.433V6.90164H45.1357V7.70405C45.3836 7.40396 45.7097 7.15606 46.1142 6.96035C46.5187 6.76464 46.9166 6.66678 47.3081 6.66678C47.83 6.66678 48.3258 6.77116 48.7955 6.97992C49.2782 7.17563 49.7023 7.45615 50.0676 7.82148C50.4199 8.17376 50.6939 8.59128 50.8896 9.07404C51.0983 9.54374 51.2027 10.0461 51.2027 10.581V16.4524H49.4805Z" fill="url(#paint7_linear_0_5269)"/>
<path d="M57.3708 20.621C55.8182 20.621 54.4743 19.9295 53.3391 18.5465L54.8853 17.6266C55.5898 18.4486 56.4183 18.8596 57.3708 18.8596C57.8014 18.8596 58.2124 18.7748 58.6038 18.6052C58.9952 18.4356 59.3344 18.2007 59.6215 17.9006C59.9085 17.6005 60.1303 17.2548 60.2869 16.8634C60.4565 16.4719 60.5413 16.0609 60.5413 15.6304V15.1607C59.6541 16.1523 58.5907 16.6481 57.3512 16.6481C56.6858 16.6481 56.0465 16.5111 55.4333 16.2371C54.8331 15.95 54.3112 15.5651 53.8676 15.0824C53.4239 14.5996 53.0717 14.0516 52.8107 13.4384C52.5628 12.8252 52.4389 12.1924 52.4389 11.54C52.4389 10.8746 52.5628 10.2483 52.8107 9.66117C53.0717 9.06099 53.4305 8.53257 53.8871 8.07591C54.3438 7.63229 54.8657 7.28654 55.4528 7.03863C56.053 6.79073 56.6858 6.66678 57.3512 6.66678C58.0688 6.66678 58.7082 6.82335 59.2692 7.13649C59.8302 7.44963 60.2543 7.80191 60.5413 8.19333V6.84292H62.3027V15.6304C62.3027 16.3088 62.1723 16.9482 61.9113 17.5484C61.6634 18.1485 61.3111 18.6835 60.8545 19.1532C60.4109 19.6098 59.8824 19.9687 59.2692 20.2296C58.669 20.4905 58.0362 20.621 57.3708 20.621ZM57.3512 8.44776C56.9207 8.44776 56.5097 8.53257 56.1182 8.70218C55.7268 8.85875 55.3876 9.08708 55.1005 9.38717C54.8135 9.68727 54.5852 10.0395 54.4156 10.444C54.2459 10.8354 54.1611 11.2464 54.1611 11.677C54.1611 12.1076 54.2459 12.5251 54.4156 12.9296C54.5852 13.321 54.8135 13.6602 55.1005 13.9473C55.3876 14.2343 55.7268 14.4626 56.1182 14.6322C56.5097 14.8019 56.9207 14.8867 57.3512 14.8867C57.7818 14.8867 58.1928 14.8019 58.5842 14.6322C58.9756 14.4626 59.3149 14.2343 59.6019 13.9473C59.889 13.6602 60.1108 13.321 60.2673 12.9296C60.437 12.5251 60.5218 12.1076 60.5218 11.677C60.5218 11.2464 60.437 10.8354 60.2673 10.444C60.1108 10.0395 59.889 9.68727 59.6019 9.38717C59.3149 9.08708 58.9756 8.85875 58.5842 8.70218C58.1928 8.53257 57.7818 8.44776 57.3512 8.44776Z" fill="url(#paint8_linear_0_5269)"/>
<path d="M57.3708 20.621C55.8182 20.621 54.4743 19.9295 53.3391 18.5465L54.8853 17.6266C55.5898 18.4486 56.4183 18.8596 57.3708 18.8596C57.8014 18.8596 58.2124 18.7748 58.6038 18.6052C58.9952 18.4356 59.3344 18.2007 59.6215 17.9006C59.9085 17.6005 60.1303 17.2548 60.2869 16.8634C60.4565 16.4719 60.5413 16.0609 60.5413 15.6304V15.1607C59.6541 16.1523 58.5907 16.6481 57.3512 16.6481C56.6858 16.6481 56.0465 16.5111 55.4333 16.2371C54.8331 15.95 54.3112 15.5651 53.8676 15.0824C53.4239 14.5996 53.0717 14.0516 52.8107 13.4384C52.5628 12.8252 52.4389 12.1924 52.4389 11.54C52.4389 10.8746 52.5628 10.2483 52.8107 9.66117C53.0717 9.06099 53.4305 8.53257 53.8871 8.07591C54.3438 7.63229 54.8657 7.28654 55.4528 7.03863C56.053 6.79073 56.6858 6.66678 57.3512 6.66678C58.0688 6.66678 58.7082 6.82335 59.2692 7.13649C59.8302 7.44963 60.2543 7.80191 60.5413 8.19333V6.84292H62.3027V15.6304C62.3027 16.3088 62.1723 16.9482 61.9113 17.5484C61.6634 18.1485 61.3111 18.6835 60.8545 19.1532C60.4109 19.6098 59.8824 19.9687 59.2692 20.2296C58.669 20.4905 58.0362 20.621 57.3708 20.621ZM57.3512 8.44776C56.9207 8.44776 56.5097 8.53257 56.1182 8.70218C55.7268 8.85875 55.3876 9.08708 55.1005 9.38717C54.8135 9.68727 54.5852 10.0395 54.4156 10.444C54.2459 10.8354 54.1611 11.2464 54.1611 11.677C54.1611 12.1076 54.2459 12.5251 54.4156 12.9296C54.5852 13.321 54.8135 13.6602 55.1005 13.9473C55.3876 14.2343 55.7268 14.4626 56.1182 14.6322C56.5097 14.8019 56.9207 14.8867 57.3512 14.8867C57.7818 14.8867 58.1928 14.8019 58.5842 14.6322C58.9756 14.4626 59.3149 14.2343 59.6019 13.9473C59.889 13.6602 60.1108 13.321 60.2673 12.9296C60.437 12.5251 60.5218 12.1076 60.5218 11.677C60.5218 11.2464 60.437 10.8354 60.2673 10.444C60.1108 10.0395 59.889 9.68727 59.6019 9.38717C59.3149 9.08708 58.9756 8.85875 58.5842 8.70218C58.1928 8.53257 57.7818 8.44776 57.3512 8.44776Z" fill="url(#paint9_linear_0_5269)"/>
<path d="M74.6666 16.4524V10.3266C74.6666 9.79165 74.4774 9.34151 74.0991 8.97618C73.7337 8.61085 73.2836 8.42819 72.7486 8.42819C72.2267 8.42819 71.7701 8.61085 71.3787 8.97618C71.0003 9.32846 70.8111 9.77207 70.8111 10.307V16.4524H69.0301V10.307C69.0301 9.75903 68.8475 9.31541 68.4821 8.97618C68.0907 8.61085 67.6275 8.42819 67.0926 8.42819C66.5707 8.42819 66.1271 8.61085 65.7617 8.97618C65.3703 9.3676 65.1746 9.83079 65.1746 10.3657V16.4524H63.4132V6.90164H65.1746V7.62577C65.3964 7.35177 65.6835 7.12344 66.0357 6.94078C66.4011 6.75811 66.7533 6.66678 67.0926 6.66678C67.6667 6.66678 68.1886 6.78421 68.6583 7.01906C69.141 7.24087 69.5585 7.55401 69.9108 7.95848C70.2631 7.55401 70.6806 7.24087 71.1634 7.01906C71.6461 6.78421 72.1746 6.66678 72.7486 6.66678C73.2575 6.66678 73.7337 6.75811 74.1773 6.94078C74.621 7.12344 75.0124 7.38439 75.3516 7.72363C75.6908 8.06286 75.9518 8.46081 76.1345 8.91747C76.3302 9.36108 76.428 9.83079 76.428 10.3266V16.4524H74.6666Z" fill="url(#paint10_linear_0_5269)"/>
<path d="M74.6666 16.4524V10.3266C74.6666 9.79165 74.4774 9.34151 74.0991 8.97618C73.7337 8.61085 73.2836 8.42819 72.7486 8.42819C72.2267 8.42819 71.7701 8.61085 71.3787 8.97618C71.0003 9.32846 70.8111 9.77207 70.8111 10.307V16.4524H69.0301V10.307C69.0301 9.75903 68.8475 9.31541 68.4821 8.97618C68.0907 8.61085 67.6275 8.42819 67.0926 8.42819C66.5707 8.42819 66.1271 8.61085 65.7617 8.97618C65.3703 9.3676 65.1746 9.83079 65.1746 10.3657V16.4524H63.4132V6.90164H65.1746V7.62577C65.3964 7.35177 65.6835 7.12344 66.0357 6.94078C66.4011 6.75811 66.7533 6.66678 67.0926 6.66678C67.6667 6.66678 68.1886 6.78421 68.6583 7.01906C69.141 7.24087 69.5585 7.55401 69.9108 7.95848C70.2631 7.55401 70.6806 7.24087 71.1634 7.01906C71.6461 6.78421 72.1746 6.66678 72.7486 6.66678C73.2575 6.66678 73.7337 6.75811 74.1773 6.94078C74.621 7.12344 75.0124 7.38439 75.3516 7.72363C75.6908 8.06286 75.9518 8.46081 76.1345 8.91747C76.3302 9.36108 76.428 9.83079 76.428 10.3266V16.4524H74.6666Z" fill="url(#paint11_linear_0_5269)"/>
<path d="M85.5894 16.4524V14.965C85.1719 15.4477 84.6891 15.8326 84.1411 16.1197C83.5931 16.4067 83.0125 16.5502 82.3993 16.5502C81.7208 16.5502 81.0815 16.4263 80.4813 16.1784C79.8942 15.9305 79.3723 15.5782 78.9156 15.1215C78.459 14.6779 78.1002 14.156 77.8392 13.5558C77.5913 12.9426 77.4674 12.3033 77.4674 11.6379C77.4674 10.9724 77.5913 10.3396 77.8392 9.73946C78.1002 9.12623 78.459 8.59128 78.9156 8.13462C79.3723 7.67796 79.8942 7.32568 80.4813 7.07778C81.0815 6.82988 81.7208 6.70592 82.3993 6.70592C83.0256 6.70592 83.6127 6.8364 84.1607 7.09735C84.7217 7.3583 85.198 7.72363 85.5894 8.19333V6.90164H87.3508V16.4524H85.5894ZM82.3993 8.44776C81.9687 8.44776 81.5512 8.53257 81.1467 8.70218C80.7553 8.85875 80.4161 9.08056 80.129 9.3676C79.842 9.65465 79.6137 10.0004 79.444 10.4049C79.2875 10.7963 79.2092 11.2073 79.2092 11.6379C79.2092 12.0684 79.2875 12.4794 79.444 12.8708C79.6137 13.2623 79.842 13.6015 80.129 13.8885C80.4161 14.1756 80.7553 14.4039 81.1467 14.5735C81.5512 14.7301 81.9687 14.8084 82.3993 14.8084C82.8299 14.8084 83.2409 14.7301 83.6323 14.5735C84.0237 14.4039 84.3629 14.1756 84.65 13.8885C84.937 13.6015 85.1588 13.2623 85.3154 12.8708C85.485 12.4794 85.5698 12.0684 85.5698 11.6379C85.5698 11.2073 85.485 10.7963 85.3154 10.4049C85.1588 10.0004 84.937 9.65465 84.65 9.3676C84.3629 9.08056 84.0237 8.85875 83.6323 8.70218C83.2409 8.53257 82.8299 8.44776 82.3993 8.44776Z" fill="url(#paint12_linear_0_5269)"/>
<path d="M85.5894 16.4524V14.965C85.1719 15.4477 84.6891 15.8326 84.1411 16.1197C83.5931 16.4067 83.0125 16.5502 82.3993 16.5502C81.7208 16.5502 81.0815 16.4263 80.4813 16.1784C79.8942 15.9305 79.3723 15.5782 78.9156 15.1215C78.459 14.6779 78.1002 14.156 77.8392 13.5558C77.5913 12.9426 77.4674 12.3033 77.4674 11.6379C77.4674 10.9724 77.5913 10.3396 77.8392 9.73946C78.1002 9.12623 78.459 8.59128 78.9156 8.13462C79.3723 7.67796 79.8942 7.32568 80.4813 7.07778C81.0815 6.82988 81.7208 6.70592 82.3993 6.70592C83.0256 6.70592 83.6127 6.8364 84.1607 7.09735C84.7217 7.3583 85.198 7.72363 85.5894 8.19333V6.90164H87.3508V16.4524H85.5894ZM82.3993 8.44776C81.9687 8.44776 81.5512 8.53257 81.1467 8.70218C80.7553 8.85875 80.4161 9.08056 80.129 9.3676C79.842 9.65465 79.6137 10.0004 79.444 10.4049C79.2875 10.7963 79.2092 11.2073 79.2092 11.6379C79.2092 12.0684 79.2875 12.4794 79.444 12.8708C79.6137 13.2623 79.842 13.6015 80.129 13.8885C80.4161 14.1756 80.7553 14.4039 81.1467 14.5735C81.5512 14.7301 81.9687 14.8084 82.3993 14.8084C82.8299 14.8084 83.2409 14.7301 83.6323 14.5735C84.0237 14.4039 84.3629 14.1756 84.65 13.8885C84.937 13.6015 85.1588 13.2623 85.3154 12.8708C85.485 12.4794 85.5698 12.0684 85.5698 11.6379C85.5698 11.2073 85.485 10.7963 85.3154 10.4049C85.1588 10.0004 84.937 9.65465 84.65 9.3676C84.3629 9.08056 84.0237 8.85875 83.6323 8.70218C83.2409 8.53257 82.8299 8.44776 82.3993 8.44776Z" fill="url(#paint13_linear_0_5269)"/>
<path d="M95.0145 16.4524V10.581C95.0145 9.99388 94.7993 9.48503 94.3687 9.05446C93.9512 8.63695 93.4423 8.42819 92.8422 8.42819C92.255 8.42819 91.7462 8.64347 91.3156 9.07404C91.1199 9.26975 90.9633 9.5046 90.8459 9.7786C90.7285 10.0395 90.6697 10.307 90.6697 10.581V16.4524H88.9671V6.90164H90.6697V7.70405C90.9176 7.40396 91.2438 7.15606 91.6483 6.96035C92.0528 6.76464 92.4507 6.66678 92.8422 6.66678C93.3641 6.66678 93.8598 6.77116 94.3296 6.97992C94.8123 7.17563 95.2364 7.45615 95.6017 7.82148C95.954 8.17376 96.228 8.59128 96.4237 9.07404C96.6324 9.54374 96.7368 10.0461 96.7368 10.581V16.4524H95.0145Z" fill="url(#paint14_linear_0_5269)"/>
<path d="M95.0145 16.4524V10.581C95.0145 9.99388 94.7993 9.48503 94.3687 9.05446C93.9512 8.63695 93.4423 8.42819 92.8422 8.42819C92.255 8.42819 91.7462 8.64347 91.3156 9.07404C91.1199 9.26975 90.9633 9.5046 90.8459 9.7786C90.7285 10.0395 90.6697 10.307 90.6697 10.581V16.4524H88.9671V6.90164H90.6697V7.70405C90.9176 7.40396 91.2438 7.15606 91.6483 6.96035C92.0528 6.76464 92.4507 6.66678 92.8422 6.66678C93.3641 6.66678 93.8598 6.77116 94.3296 6.97992C94.8123 7.17563 95.2364 7.45615 95.6017 7.82148C95.954 8.17376 96.228 8.59128 96.4237 9.07404C96.6324 9.54374 96.7368 10.0461 96.7368 10.581V16.4524H95.0145Z" fill="url(#paint15_linear_0_5269)"/>
<defs>
<filter id="filter0_i_0_5269" x="0" y="-2.25" width="20.75" height="23" filterUnits="userSpaceOnUse" color-interpolation-filters="sRGB">
<feFlood flood-opacity="0" result="BackgroundImageFix"/>
<feBlend mode="normal" in="SourceGraphic" in2="BackgroundImageFix" result="shape"/>
<feColorMatrix in="SourceAlpha" type="matrix" values="0 0 0 0 0 0 0 0 0 0 0 0 0 0 0 0 0 0 127 0" result="hardAlpha"/>
<feOffset dy="-2.25"/>
<feGaussianBlur stdDeviation="2.5875"/>
<feComposite in2="hardAlpha" operator="arithmetic" k2="-1" k3="1"/>
<feColorMatrix type="matrix" values="0 0 0 0 0.29099 0 0 0 0 0.629167 0 0 0 0 0.597854 0 0 0 1 0"/>
<feBlend mode="normal" in2="shape" result="effect1_innerShadow_0_5269"/>
</filter>
<linearGradient id="paint0_linear_0_5269" x1="20.125" y1="0.375001" x2="0.750001" y2="21.375" gradientUnits="userSpaceOnUse">
<stop stop-color="#3FDCCD" stop-opacity="0.81"/>
<stop offset="1" stop-color="#09544D"/>
</linearGradient>
<linearGradient id="paint1_linear_0_5269" x1="10.375" y1="0" x2="10.375" y2="20.75" gradientUnits="userSpaceOnUse">
<stop stop-color="#33F7E4"/>
<stop offset="1" stop-color="#051D1B" stop-opacity="0"/>
</linearGradient>
<linearGradient id="paint2_linear_0_5269" x1="82.892" y1="0.122647" x2="39.5443" y2="26.9539" gradientUnits="userSpaceOnUse">
<stop stop-color="#9B58F5"/>
<stop offset="1" stop-color="#4865FF"/>
</linearGradient>
<linearGradient id="paint3_linear_0_5269" x1="59.8191" y1="3.41797" x2="59.8191" y2="20.621" gradientUnits="userSpaceOnUse">
<stop stop-color="#5CE9DB"/>
<stop offset="1" stop-color="#16A093"/>
</linearGradient>
<linearGradient id="paint4_linear_0_5269" x1="82.892" y1="0.122647" x2="39.5443" y2="26.9539" gradientUnits="userSpaceOnUse">
<stop stop-color="#9B58F5"/>
<stop offset="1" stop-color="#4865FF"/>
</linearGradient>
<linearGradient id="paint5_linear_0_5269" x1="59.8191" y1="3.41797" x2="59.8191" y2="20.621" gradientUnits="userSpaceOnUse">
<stop stop-color="#5CE9DB"/>
<stop offset="1" stop-color="#16A093"/>
</linearGradient>
<linearGradient id="paint6_linear_0_5269" x1="82.892" y1="0.122647" x2="39.5443" y2="26.9539" gradientUnits="userSpaceOnUse">
<stop stop-color="#9B58F5"/>
<stop offset="1" stop-color="#4865FF"/>
</linearGradient>
<linearGradient id="paint7_linear_0_5269" x1="59.8191" y1="3.41797" x2="59.8191" y2="20.621" gradientUnits="userSpaceOnUse">
<stop stop-color="#5CE9DB"/>
<stop offset="1" stop-color="#16A093"/>
</linearGradient>
<linearGradient id="paint8_linear_0_5269" x1="82.892" y1="0.122647" x2="39.5443" y2="26.9539" gradientUnits="userSpaceOnUse">
<stop stop-color="#9B58F5"/>
<stop offset="1" stop-color="#4865FF"/>
</linearGradient>
<linearGradient id="paint9_linear_0_5269" x1="59.8191" y1="3.41797" x2="59.8191" y2="20.621" gradientUnits="userSpaceOnUse">
<stop stop-color="#5CE9DB"/>
<stop offset="1" stop-color="#16A093"/>
</linearGradient>
<linearGradient id="paint10_linear_0_5269" x1="82.892" y1="0.122647" x2="39.5443" y2="26.9539" gradientUnits="userSpaceOnUse">
<stop stop-color="#9B58F5"/>
<stop offset="1" stop-color="#4865FF"/>
</linearGradient>
<linearGradient id="paint11_linear_0_5269" x1="59.8191" y1="3.41797" x2="59.8191" y2="20.621" gradientUnits="userSpaceOnUse">
<stop stop-color="#5CE9DB"/>
<stop offset="1" stop-color="#16A093"/>
</linearGradient>
<linearGradient id="paint12_linear_0_5269" x1="82.892" y1="0.122647" x2="39.5443" y2="26.9539" gradientUnits="userSpaceOnUse">
<stop stop-color="#9B58F5"/>
<stop offset="1" stop-color="#4865FF"/>
</linearGradient>
<linearGradient id="paint13_linear_0_5269" x1="59.8191" y1="3.41797" x2="59.8191" y2="20.621" gradientUnits="userSpaceOnUse">
<stop stop-color="#5CE9DB"/>
<stop offset="1" stop-color="#16A093"/>
</linearGradient>
<linearGradient id="paint14_linear_0_5269" x1="82.892" y1="0.122647" x2="39.5443" y2="26.9539" gradientUnits="userSpaceOnUse">
<stop stop-color="#9B58F5"/>
<stop offset="1" stop-color="#4865FF"/>
</linearGradient>
<linearGradient id="paint15_linear_0_5269" x1="59.8191" y1="3.41797" x2="59.8191" y2="20.621" gradientUnits="userSpaceOnUse">
<stop stop-color="#5CE9DB"/>
<stop offset="1" stop-color="#16A093"/>
</linearGradient>
</defs>
</svg>
